<svg width="177" height="182" viewBox="0 0 177 182" fill="none" xmlns="http://www.w3.org/2000/svg">
<path d="M0 5.6875C0 4.17908 0.582755 2.73244 1.62007 1.66583C2.65738 0.599217 4.06427 0 5.53125 0L38.7188 0C40.1857 0 41.5926 0.599217 42.6299 1.66583C43.6672 2.73244 44.25 4.17908 44.25 5.6875C44.25 7.19592 43.6672 8.64256 42.6299 9.70917C41.5926 10.7758 40.1857 11.375 38.7188 11.375H32.0625C20.4645 11.375 11.0625 20.777 11.0625 32.375V39.8125C11.0625 41.3209 10.4797 42.7676 9.44244 43.8342C8.40512 44.9008 6.99823 45.5 5.53125 45.5C4.06427 45.5 2.65738 44.9008 1.62007 43.8342C0.582755 42.7676 0 41.3209 0 39.8125V5.6875ZM132.75 5.6875C132.75 4.17908 133.333 2.73244 134.37 1.66583C135.407 0.599217 136.814 0 138.281 0L171.469 0C172.936 0 174.343 0.599217 175.38 1.66583C176.417 2.73244 177 4.17908 177 5.6875V39.8125C177 41.3209 176.417 42.7676 175.38 43.8342C174.343 44.9008 172.936 45.5 171.469 45.5C170.002 45.5 168.595 44.9008 167.558 43.8342C166.52 42.7676 165.938 41.3209 165.938 39.8125V32.375C165.938 20.777 156.535 11.375 144.938 11.375H138.281C136.814 11.375 135.407 10.7758 134.37 9.70917C133.333 8.64256 132.75 7.19592 132.75 5.6875ZM5.53125 136.5C6.99823 136.5 8.40512 137.099 9.44244 138.166C10.4797 139.232 11.0625 140.679 11.0625 142.188V149.625C11.0625 161.223 20.4645 170.625 32.0625 170.625H38.7188C40.1857 170.625 41.5926 171.224 42.6299 172.291C43.6672 173.357 44.25 174.804 44.25 176.313C44.25 177.821 43.6672 179.268 42.6299 180.334C41.5926 181.401 40.1857 182 38.7188 182H5.53125C4.06427 182 2.65738 181.401 1.62007 180.334C0.582755 179.268 0 177.821 0 176.313V142.188C0 140.679 0.582755 139.232 1.62007 138.166C2.65738 137.099 4.06427 136.5 5.53125 136.5ZM171.469 136.5C172.936 136.5 174.343 137.099 175.38 138.166C176.417 139.232 177 140.679 177 142.188V176.313C177 177.821 176.417 179.268 175.38 180.334C174.343 181.401 172.936 182 171.469 182H138.281C136.814 182 135.407 181.401 134.37 180.334C133.333 179.268 132.75 177.821 132.75 176.313C132.75 174.804 133.333 173.357 134.37 172.291C135.407 171.224 136.814 170.625 138.281 170.625H144.938C156.535 170.625 165.938 161.223 165.938 149.625V142.188C165.938 140.679 166.52 139.232 167.558 138.166C168.595 137.099 170.002 136.5 171.469 136.5ZM44.25 51.0313C44.25 47.9764 46.7264 45.5 49.7813 45.5V45.5C52.8361 45.5 55.3125 47.9764 55.3125 51.0313V51.3438C55.3125 54.3986 52.8361 56.875 49.7813 56.875V56.875C46.7264 56.875 44.25 54.3986 44.25 51.3438V51.0313Z" fill="#32D96C"/>
<path d="M77.4375 22.75H22.125V79.625H77.4375V22.75ZM33.1875 34.125H66.375V68.25H33.1875V34.125ZM55.3125 125.125H44.25V136.5H55.3125V125.125Z" fill="#A0A0A0"/>
<path d="M77.4375 102.375H22.125V159.25H77.4375V102.375ZM33.1875 113.75H66.375V147.875H33.1875V113.75ZM121.688 45.5H132.75V56.875H121.688V45.5Z" fill="#A0A0A0"/>
<path d="M99.5625 22.75H154.875V79.625H99.5625V22.75ZM110.625 34.125V68.25H143.812V34.125H110.625ZM88.5 91V113.75H99.5625V125.125H88.5V136.5H110.625V113.75H121.688V136.5H132.75V125.125H154.875V113.75H121.688V91H88.5ZM110.625 113.75H99.5625V102.375H110.625V113.75ZM154.875 136.5H143.812V147.875H121.688V159.25H154.875V136.5ZM110.625 159.25V147.875H88.5V159.25H110.625Z" fill="#A0A0A0"/>
<path d="M132.75 102.375H154.875V91H132.75V102.375Z" fill="#A0A0A0"/>
<ellipse cx="49.6583" cy="51.0611" rx="6.39167" ry="6.57222" fill="#A0A0A0"/>
<path d="M0 91C0 88.7909 1.79086 87 4 87H173C175.209 87 177 88.7909 177 91V109C177 111.209 175.209 113 173 113H4C1.79086 113 0 111.209 0 109V91Z" fill="url(#paint0_linear_492_1947)"/>
<defs>
<linearGradient id="paint0_linear_492_1947" x1="89" y1="38" x2="88.5" y2="113" gradientUnits="userSpaceOnUse">
<stop stop-color="#32D96C"/>
<stop offset="1" stop-color="#32D96C" stop-opacity="0"/>
</linearGradient>
</defs>
</svg>
