<svg width="197" height="337" viewBox="0 0 197 337" fill="none" xmlns="http://www.w3.org/2000/svg">
<path d="M-21.3777 269.694C-88.4712 251.765 -128.499 182.542 -110.569 115.449C-92.6397 48.3553 -23.4174 8.32792 43.6762 26.2574C110.77 44.1869 150.797 113.409 132.868 180.503C114.938 247.596 45.7159 287.624 -21.3777 269.694ZM38.9161 44.0699C-18.4399 28.7425 -77.4611 62.9716 -92.7567 120.209C-108.052 177.446 -73.9737 236.554 -16.6176 251.882C40.7385 267.209 99.7596 232.98 115.055 175.743C130.351 118.505 96.2722 59.3972 38.9161 44.0699Z" fill="#898989"/>
<path d="M100.136 314.889C97.88 314.287 95.8459 312.852 94.5407 310.595L77.1375 280.498C74.614 276.134 76.1372 270.434 80.5012 267.911C84.8653 265.387 90.5653 266.911 93.0887 271.275L110.492 301.371C113.015 305.735 111.492 311.435 107.128 313.959C104.871 315.264 102.393 315.492 100.136 314.889Z" fill="#898989"/>
</svg>
