<svg width="22" height="22" viewBox="0 0 22 22"  xmlns="http://www.w3.org/2000/svg">
<path d="M17.125 2.25H8.375C7.40987 2.25 6.625 3.03487 6.625 4V9.25H4.875C3.90987 9.25 3.125 10.0349 3.125 11V18.875C3.125 19.1071 3.21719 19.3296 3.38128 19.4937C3.54538 19.6578 3.76794 19.75 4 19.75H18C18.2321 19.75 18.4546 19.6578 18.6187 19.4937C18.7828 19.3296 18.875 19.1071 18.875 18.875V4C18.875 3.03487 18.0901 2.25 17.125 2.25ZM4.875 11H10.125V18H4.875V11ZM17.125 18H11.875V11C11.875 10.0349 11.0901 9.25 10.125 9.25H8.375V4H17.125V18Z"/>
<path d="M10.125 5.75H11.875V7.5H10.125V5.75ZM13.625 5.75H15.375V7.5H13.625V5.75ZM13.625 9.27713H15.375V11H13.625V9.27713ZM13.625 12.75H15.375V14.5H13.625V12.75ZM6.625 12.7509H8.375V14.5009H6.625V12.7509Z" />
</svg>
