<svg width="24" height="24" viewBox="0 0 24 24" fill="none" xmlns="http://www.w3.org/2000/svg">
<path d="M12 8V13H17V11H14V8H12Z" fill="#424242"/>
<path d="M21.292 8.497C20.8409 7.42705 20.1861 6.45501 19.364 5.635C18.1196 4.39057 16.5377 3.5381 14.814 3.183C13.6176 2.93949 12.3844 2.93949 11.188 3.183C9.46267 3.53584 7.87947 4.389 6.636 5.636C5.81589 6.45689 5.16133 7.42786 4.708 8.496C4.23911 9.60461 3.99832 10.7963 4 12L4.001 12.025H2L5 16L8 12.025H6.001L6 12C5.99712 10.6054 6.41346 9.24207 7.195 8.087C7.69912 7.34169 8.34095 6.69952 9.086 6.195C9.84394 5.68441 10.6941 5.3264 11.589 5.141C13.4075 4.7671 15.3001 5.13063 16.8507 6.15167C18.4013 7.17271 19.483 8.7677 19.858 10.586C20.0466 11.5179 20.0466 12.4781 19.858 13.41C19.675 14.3056 19.3168 15.1563 18.804 15.913C18.554 16.284 18.267 16.633 17.95 16.949C17.3112 17.587 16.5558 18.0966 15.725 18.45C15.3018 18.6289 14.862 18.7655 14.412 18.858C13.4804 19.0465 12.5206 19.0465 11.589 18.858C10.6943 18.6746 9.84447 18.3168 9.088 17.805C8.71595 17.5536 8.36871 17.2673 8.051 16.95L6.637 18.364C7.47212 19.2003 8.46403 19.8636 9.5559 20.3159C10.6478 20.7682 11.8181 21.0007 13 21C14.2031 20.9995 15.3939 20.7592 16.503 20.293C18.1106 19.6128 19.486 18.4803 20.462 17.033C21.4665 15.5469 22.0022 13.7937 22 12C22.0025 10.7966 21.7617 9.60502 21.292 8.497Z" fill="#424242"/>
</svg>
