<svg width="21" height="22" viewBox="0 0 21 22"  xmlns="http://www.w3.org/2000/svg">
<path d="M19.6875 18.875C19.6875 18.875 21 18.875 21 17.5625C21 16.25 19.6875 12.3125 14.4375 12.3125C9.1875 12.3125 7.875 16.25 7.875 17.5625C7.875 18.875 9.1875 18.875 9.1875 18.875H19.6875ZM9.21637 17.5625C9.20668 17.5612 9.19705 17.5594 9.1875 17.5573C9.18881 17.2108 9.40669 16.2054 10.185 15.2998C10.9095 14.4506 12.1826 13.625 14.4375 13.625C16.6911 13.625 17.9642 14.4519 18.69 15.2998C19.4683 16.2054 19.6849 17.2121 19.6875 17.5573L19.677 17.5599C19.6709 17.5609 19.6648 17.5618 19.6586 17.5625H9.21637ZM14.4375 9.6875C15.1337 9.6875 15.8014 9.41094 16.2937 8.91866C16.7859 8.42637 17.0625 7.75869 17.0625 7.0625C17.0625 6.36631 16.7859 5.69863 16.2937 5.20634C15.8014 4.71406 15.1337 4.4375 14.4375 4.4375C13.7413 4.4375 13.0736 4.71406 12.5813 5.20634C12.0891 5.69863 11.8125 6.36631 11.8125 7.0625C11.8125 7.75869 12.0891 8.42637 12.5813 8.91866C13.0736 9.41094 13.7413 9.6875 14.4375 9.6875ZM18.375 7.0625C18.375 7.57958 18.2732 8.0916 18.0753 8.56932C17.8774 9.04704 17.5874 9.4811 17.2217 9.84673C16.8561 10.2124 16.422 10.5024 15.9443 10.7003C15.4666 10.8982 14.9546 11 14.4375 11C13.9204 11 13.4084 10.8982 12.9307 10.7003C12.453 10.5024 12.0189 10.2124 11.6533 9.84673C11.2876 9.4811 10.9976 9.04704 10.7997 8.56932C10.6018 8.0916 10.5 7.57958 10.5 7.0625C10.5 6.01821 10.9148 5.01669 11.6533 4.27827C12.3917 3.53984 13.3932 3.125 14.4375 3.125C15.4818 3.125 16.4833 3.53984 17.2217 4.27827C17.9602 5.01669 18.375 6.01821 18.375 7.0625ZM9.1035 12.68C8.57848 12.5147 8.03727 12.406 7.48912 12.3558C7.18112 12.3265 6.87189 12.3121 6.5625 12.3125C1.3125 12.3125 0 16.25 0 17.5625C0 18.4379 0.437063 18.875 1.3125 18.875H6.846C6.65143 18.4653 6.55439 18.016 6.5625 17.5625C6.5625 16.2369 7.05731 14.8824 7.99313 13.751C8.31206 13.3651 8.6835 13.0042 9.1035 12.68ZM6.4575 13.625C5.6807 14.7922 5.26108 16.1605 5.25 17.5625H1.3125C1.3125 17.2213 1.52775 16.2106 2.31 15.2998C3.02531 14.465 4.26825 13.6513 6.4575 13.6263V13.625ZM1.96875 7.71875C1.96875 6.67446 2.38359 5.67294 3.12202 4.93452C3.86044 4.19609 4.86196 3.78125 5.90625 3.78125C6.95054 3.78125 7.95206 4.19609 8.69048 4.93452C9.42891 5.67294 9.84375 6.67446 9.84375 7.71875C9.84375 8.76304 9.42891 9.76456 8.69048 10.503C7.95206 11.2414 6.95054 11.6562 5.90625 11.6562C4.86196 11.6562 3.86044 11.2414 3.12202 10.503C2.38359 9.76456 1.96875 8.76304 1.96875 7.71875ZM5.90625 5.09375C5.21006 5.09375 4.54238 5.37031 4.05009 5.86259C3.55781 6.35488 3.28125 7.02256 3.28125 7.71875C3.28125 8.41494 3.55781 9.08262 4.05009 9.57491C4.54238 10.0672 5.21006 10.3438 5.90625 10.3438C6.60244 10.3438 7.27012 10.0672 7.76241 9.57491C8.25469 9.08262 8.53125 8.41494 8.53125 7.71875C8.53125 7.02256 8.25469 6.35488 7.76241 5.86259C7.27012 5.37031 6.60244 5.09375 5.90625 5.09375Z" />
</svg>
