<svg width="25" height="24" viewBox="0 0 25 24" fill="none" xmlns="http://www.w3.org/2000/svg">
<path d="M4.31429 11.1631L4.31444 11.163L4.30558 11.1522C4.262 11.0993 4.24215 11.017 4.25718 10.9509L4.25725 10.9509L4.25901 10.9425L5.3888 5.54351C5.38884 5.54333 5.38887 5.54315 5.38891 5.54297C5.56894 4.69168 5.82513 3.96886 6.32782 3.45267C6.81372 2.95372 7.59893 2.58008 8.98961 2.58008H16.0196C17.4094 2.58008 18.1948 2.9557 18.6811 3.45606C19.1842 3.97377 19.4404 4.69704 19.6204 5.54331C19.6204 5.54356 19.6205 5.54382 19.6205 5.54407L20.7502 10.9523L20.7501 10.9523L20.752 10.9609C20.7648 11.0169 20.7539 11.0903 20.7042 11.1607C20.6463 11.2206 20.5748 11.2501 20.4996 11.2501H4.49961C4.41903 11.2501 4.3566 11.2175 4.31429 11.1631ZM4.9304 10.1468L4.80304 10.7501H5.41961H19.5696H20.1848L20.059 10.1478L19.1191 5.64784L19.1186 5.64557C18.9808 5.00102 18.8082 4.31969 18.3266 3.82504C17.8226 3.30735 17.0762 3.08008 16.0096 3.08008H8.98961C7.92303 3.08008 7.17663 3.30735 6.67261 3.82504C6.19102 4.31969 6.01842 5.00102 5.88065 5.64557L5.8804 5.6468L4.9304 10.1468Z" fill="#98A2B3" stroke="#98A2B3"/>
<path d="M16.9239 21.052L16.9247 21.0543C17.0273 21.3673 17.1259 21.6429 17.3378 21.8574C17.5297 22.0517 17.8733 22.2501 18.5796 22.2501H20.4596C21.1117 22.2501 21.7369 21.9773 22.1704 21.5029L16.9239 21.052ZM16.9239 21.052L16.7239 20.452L16.724 20.452M16.9239 21.052L16.724 20.452M16.724 20.452L16.7227 20.4482M16.724 20.452L16.7227 20.4482M16.7227 20.4482L16.7138 20.4224C16.6553 20.2512 16.5982 20.084 16.5348 19.9462C16.4654 19.7952 16.368 19.6314 16.2038 19.5021C16.0373 19.3712 15.8499 19.3129 15.6673 19.2838C15.4915 19.2558 15.2864 19.2501 15.0596 19.2501H9.9396C9.50189 19.2501 9.08586 19.2796 8.77538 19.5355C8.61742 19.6656 8.52101 19.8253 8.45186 19.9754C8.38749 20.1152 8.3327 20.2796 8.27926 20.4399L8.27526 20.452L8.07603 21.0497C8.0759 21.0501 8.07577 21.0504 8.07564 21.0508C7.9663 21.3736 7.86855 21.6477 7.65763 21.8612C7.46775 22.0534 7.12723 22.2501 6.4196 22.2501H4.5396C3.88744 22.2501 3.26225 21.9772 2.8287 21.5028C2.40468 21.0378 2.20026 20.4173 2.25749 19.7959L2.2575 19.7959M16.7227 20.4482L2.2575 19.7959M2.2575 19.7959L2.8175 13.7059L2.81754 13.7053M2.2575 19.7959L2.81754 13.7053M2.81754 13.7053C2.89188 12.8876 3.03279 12.1727 3.45871 11.6534C3.86183 11.1618 4.6055 10.7501 6.1196 10.7501H18.8796C20.3935 10.7501 21.1345 11.1617 21.5364 11.6529C21.9615 12.1726 22.1022 12.8873 22.1818 13.7069C22.1818 13.7074 22.1819 13.7079 22.1819 13.7083L22.7417 19.7959L22.7417 19.7959M2.81754 13.7053L22.7417 19.7959M22.7417 19.7959C22.7989 20.4173 22.5945 21.0378 22.1705 21.5028L22.7417 19.7959ZM21.8065 21.1798L21.807 21.1792C22.144 20.8141 22.2996 20.3448 22.2578 19.8574L22.2575 19.8543L21.6975 13.7643L21.6973 13.7622C21.6359 13.1246 21.5632 12.4328 21.1273 11.9455C20.668 11.4321 19.9301 11.2601 18.8996 11.2601H6.1196C5.08516 11.2601 4.34406 11.4317 3.88444 11.9455C3.4473 12.4341 3.37832 13.1273 3.32163 13.765C3.32161 13.7653 3.32158 13.7655 3.32156 13.7658L2.7617 19.8543L2.76169 19.8543L2.76142 19.8574C2.71977 20.3433 2.8742 20.8112 3.20903 21.1758C3.55201 21.5594 4.0511 21.7601 4.5496 21.7601H6.4296H6.43C6.55646 21.7601 6.68798 21.7601 6.79977 21.7476C6.91744 21.7345 7.07328 21.7025 7.21878 21.596C7.3636 21.4899 7.44071 21.3519 7.48816 21.2474C7.53028 21.1546 7.5688 21.0411 7.60543 20.9333C7.60796 20.9258 7.61048 20.9184 7.61298 20.911L7.61301 20.911L7.61471 20.9059L7.81471 20.2959L7.81476 20.2959L7.81684 20.2892C7.9437 19.8832 8.07033 19.5236 8.34499 19.248C8.6001 18.9921 9.04712 18.7501 9.9396 18.7501H15.0596C15.8972 18.7501 16.324 18.9357 16.5815 19.1626C16.854 19.4029 17.0179 19.756 17.1962 20.2809L17.4053 20.8982C17.4054 20.8986 17.4055 20.899 17.4057 20.8995C17.408 20.9065 17.4104 20.9135 17.4127 20.9206C17.4494 21.0309 17.4877 21.1459 17.5295 21.2398C17.5763 21.3449 17.6525 21.4843 17.7968 21.592C17.9427 21.7009 18.0996 21.7339 18.2185 21.7474C18.3306 21.7601 18.4624 21.7601 18.5885 21.7601H18.5896H20.4696C20.9757 21.7601 21.4597 21.5543 21.8065 21.1798Z" fill="#98A2B3" stroke="#98A2B3"/>
<path d="M4.49951 8.25008H3.49951C3.36565 8.25008 3.24951 8.13393 3.24951 8.00008C3.24951 7.86622 3.36565 7.75008 3.49951 7.75008H4.49951C4.63337 7.75008 4.74951 7.86622 4.74951 8.00008C4.74951 8.13393 4.63337 8.25008 4.49951 8.25008Z" fill="#98A2B3" stroke="#98A2B3"/>
<path d="M21.4995 8.75008H20.4995C20.0895 8.75008 19.7495 8.41008 19.7495 8.00008C19.7495 7.59008 20.0895 7.25008 20.4995 7.25008H21.4995C21.9095 7.25008 22.2495 7.59008 22.2495 8.00008C22.2495 8.41008 21.9095 8.75008 21.4995 8.75008Z" fill="#98A2B3"/>
<path d="M12.4995 5.75009C12.0895 5.75009 11.7495 5.41009 11.7495 5.00009V3.00009C11.7495 2.59009 12.0895 2.25009 12.4995 2.25009C12.9095 2.25009 13.2495 2.59009 13.2495 3.00009V5.00009C13.2495 5.41009 12.9095 5.75009 12.4995 5.75009Z" fill="#98A2B3"/>
<path d="M13.9995 5.75009H10.9995C10.5895 5.75009 10.2495 5.41009 10.2495 5.00009C10.2495 4.59009 10.5895 4.25009 10.9995 4.25009H13.9995C14.4095 4.25009 14.7495 4.59009 14.7495 5.00009C14.7495 5.41009 14.4095 5.75009 13.9995 5.75009Z" fill="#98A2B3"/>
<path d="M9.49951 15.7501H6.49951C6.08951 15.7501 5.74951 15.4101 5.74951 15.0001C5.74951 14.5901 6.08951 14.2501 6.49951 14.2501H9.49951C9.90951 14.2501 10.2495 14.5901 10.2495 15.0001C10.2495 15.4101 9.90951 15.7501 9.49951 15.7501Z" fill="#98A2B3"/>
<path d="M18.4995 15.7501H15.4995C15.0895 15.7501 14.7495 15.4101 14.7495 15.0001C14.7495 14.5901 15.0895 14.2501 15.4995 14.2501H18.4995C18.9095 14.2501 19.2495 14.5901 19.2495 15.0001C19.2495 15.4101 18.9095 15.7501 18.4995 15.7501Z" fill="#98A2B3"/>
</svg>
