<svg width="28" height="28" viewBox="0 0 16 16"  xmlns="http://www.w3.org/2000/svg">
<path d="M4.13946 11.7188C3.91471 11.7188 3.68996 11.636 3.51253 11.4586C3.16949 11.1157 3.16949 10.5481 3.51253 10.2052L10.2077 3.51244C10.5507 3.16952 11.1185 3.16952 11.4615 3.51244C11.8046 3.85535 11.8046 4.42294 11.4615 4.76586L4.76638 11.4586C4.60078 11.636 4.3642 11.7188 4.13946 11.7188Z"  />
<path d="M10.8346 11.7188C10.6098 11.7188 10.3851 11.636 10.2077 11.4586L3.51253 4.76586C3.16949 4.42294 3.16949 3.85535 3.51253 3.51244C3.85556 3.16952 4.42335 3.16952 4.76638 3.51244L11.4615 10.2052C11.8046 10.5481 11.8046 11.1157 11.4615 11.4586C11.2841 11.636 11.0593 11.7188 10.8346 11.7188Z" />
</svg>
