<svg width="19" height="19" viewBox="0 0 19 19"  xmlns="http://www.w3.org/2000/svg">
<path d="M4.65499 15.14C4.19749 15.14 3.76999 14.9825 3.46249 14.69C3.07249 14.3225 2.88499 13.7675 2.95249 13.1675L3.22999 10.7375C3.28249 10.28 3.55999 9.67254 3.88249 9.34254L10.04 2.82504C11.5775 1.19754 13.1825 1.15254 14.81 2.69004C16.4375 4.22754 16.4825 5.83254 14.945 7.46004L8.78749 13.9775C8.47249 14.315 7.88749 14.63 7.42999 14.705L5.01499 15.1175C4.88749 15.125 4.77499 15.14 4.65499 15.14ZM12.4475 2.68254C11.87 2.68254 11.3675 3.04254 10.8575 3.58254L4.69999 10.1075C4.54999 10.265 4.37749 10.64 4.34749 10.8575L4.06999 13.2875C4.03999 13.535 4.09999 13.7375 4.23499 13.865C4.36999 13.9925 4.57249 14.0375 4.81999 14L7.23499 13.5875C7.45249 13.55 7.81249 13.355 7.96249 13.1975L14.12 6.68004C15.05 5.69004 15.3875 4.77504 14.03 3.50004C13.43 2.92254 12.9125 2.68254 12.4475 2.68254Z" />
<path d="M13.5051 8.71251C13.4901 8.71251 13.4676 8.71251 13.4526 8.71251C11.1126 8.48001 9.23008 6.70251 8.87008 4.37751C8.82508 4.07001 9.03508 3.78501 9.34258 3.73251C9.65008 3.68751 9.93508 3.89751 9.98758 4.20501C10.2726 6.02001 11.7426 7.41501 13.5726 7.59501C13.8801 7.62501 14.1051 7.90251 14.0751 8.21001C14.0376 8.49501 13.7901 8.71251 13.5051 8.71251Z" />
<path d="M16.25 17.5625H2.75C2.4425 17.5625 2.1875 17.3075 2.1875 17C2.1875 16.6925 2.4425 16.4375 2.75 16.4375H16.25C16.5575 16.4375 16.8125 16.6925 16.8125 17C16.8125 17.3075 16.5575 17.5625 16.25 17.5625Z" />
</svg>
