<svg width="18" height="19" viewBox="0 0 18 19" fill="none" xmlns="http://www.w3.org/2000/svg">
<path d="M8.99994 12.7474C7.20744 12.7474 5.75244 11.2924 5.75244 9.49994C5.75244 7.70744 7.20744 6.25244 8.99994 6.25244C10.7924 6.25244 12.2474 7.70744 12.2474 9.49994C12.2474 11.2924 10.7924 12.7474 8.99994 12.7474ZM8.99994 7.37744C7.82994 7.37744 6.87744 8.32994 6.87744 9.49994C6.87744 10.6699 7.82994 11.6224 8.99994 11.6224C10.1699 11.6224 11.1224 10.6699 11.1224 9.49994C11.1224 8.32994 10.1699 7.37744 8.99994 7.37744Z" />
<path d="M9.00006 16.265C6.18006 16.265 3.51756 14.615 1.68756 11.75C0.892559 10.5125 0.892559 8.49499 1.68756 7.24999C3.52506 4.38499 6.18756 2.73499 9.00006 2.73499C11.8126 2.73499 14.4751 4.38499 16.3051 7.24999C17.1001 8.48749 17.1001 10.505 16.3051 11.75C14.4751 14.615 11.8126 16.265 9.00006 16.265ZM9.00006 3.85999C6.57756 3.85999 4.26006 5.31499 2.64006 7.85749C2.07756 8.73499 2.07756 10.265 2.64006 11.1425C4.26006 13.685 6.57756 15.14 9.00006 15.14C11.4226 15.14 13.7401 13.685 15.3601 11.1425C15.9226 10.265 15.9226 8.73499 15.3601 7.85749C13.7401 5.31499 11.4226 3.85999 9.00006 3.85999Z" />
</svg>
