<svg width="27" height="24" viewBox="0 0 27 24" fill="none" xmlns="http://www.w3.org/2000/svg">
<path d="M1.5 20.4C1.5 21.0626 2.03738 21.6 2.7 21.6H5.1C5.76263 21.6 6.3 21.0626 6.3 20.4V8.39999H1.5V20.4ZM23.2185 13.2C23.8883 12.5479 24.3 11.7997 24.3 10.9909C24.3 9.00862 22.7329 7.47374 21.003 6.38212C19.4303 5.38949 17.9794 4.21574 16.8045 2.77387L16.5 2.39999L16.1955 2.77387C15.0206 4.21574 13.5701 5.38987 11.997 6.38212C10.2671 7.47374 8.7 9.00862 8.7 10.9909C8.7 11.7997 9.11175 12.5479 9.7815 13.2H23.2185ZM24.3 14.4H8.7C8.03738 14.4 7.5 14.9374 7.5 15.6V20.4C7.5 21.0626 8.03738 21.6 8.7 21.6H9.9V19.2C9.9 18.5374 10.4374 18 11.1 18C11.7626 18 12.3 18.5374 12.3 19.2V21.6H14.7V18.9C14.7 17.1 16.5 16.2 16.5 16.2C16.5 16.2 18.3 17.1 18.3 18.9V21.6H20.7V19.2C20.7 18.5374 21.2374 18 21.9 18C22.5626 18 23.1 18.5374 23.1 19.2V21.6H24.3C24.9626 21.6 25.5 21.0626 25.5 20.4V15.6C25.5 14.9374 24.9626 14.4 24.3 14.4ZM3.9 2.39999C3.9 2.39999 1.5 3.59999 1.5 5.99999V7.19999H6.3V5.99999C6.3 3.59999 3.9 2.39999 3.9 2.39999Z" fill="white" stroke="#98A2B3" stroke-width="1.5"/>
</svg>
