<svg width="25" height="24" viewBox="0 0 25 24" fill="none" xmlns="http://www.w3.org/2000/svg">
<path d="M4.25 21.25V21.75H4.75H17.25H17.75V21.25V5C17.75 4.19565 17.5085 3.49387 17.0073 2.9927C16.5061 2.49152 15.8043 2.25 15 2.25H7C6.19565 2.25 5.49387 2.49152 4.9927 2.9927C4.49152 3.49387 4.25 4.19565 4.25 5V21.25ZM18 22.25H4C3.86614 22.25 3.75 22.1339 3.75 22V5C3.75 3.99502 4.08656 3.19054 4.63855 2.63855C5.19054 2.08656 5.99502 1.75 7 1.75H15C16.005 1.75 16.8095 2.08656 17.3614 2.63855C17.9134 3.19054 18.25 3.99502 18.25 5V22C18.25 22.1339 18.1339 22.25 18 22.25Z" fill="#98A2B3" stroke="#98A2B3"/>
<path d="M19.5 22.25H2.5C2.36614 22.25 2.25 22.1339 2.25 22C2.25 21.8661 2.36614 21.75 2.5 21.75H19.5C19.6339 21.75 19.75 21.8661 19.75 22C19.75 22.1339 19.6339 22.25 19.5 22.25Z" fill="#98A2B3" stroke="#98A2B3"/>
<path d="M13.1102 10.25H8.88023C8.16958 10.25 7.64677 10.0319 7.30254 9.68768C6.95831 9.34345 6.74023 8.82064 6.74023 8.10999V6.87999C6.74023 6.16934 6.95831 5.64652 7.30254 5.30229C7.64677 4.95806 8.16958 4.73999 8.88023 4.73999H13.1102C13.8209 4.73999 14.3437 4.95806 14.6879 5.30229C15.0322 5.64652 15.2502 6.16934 15.2502 6.87999V8.10999C15.2502 8.82064 15.0322 9.34345 14.6879 9.68768C14.3437 10.0319 13.8209 10.25 13.1102 10.25ZM8.89023 5.24998C8.43368 5.24998 7.98537 5.34024 7.66293 5.66268C7.34049 5.98512 7.25023 6.43343 7.25023 6.88998V8.11998C7.25023 8.57653 7.34049 9.02484 7.66293 9.34728C7.98537 9.66972 8.43368 9.75998 8.89023 9.75998H13.1202C13.5768 9.75998 14.0251 9.66972 14.3475 9.34728C14.67 9.02484 14.7602 8.57653 14.7602 8.11998V6.88998C14.7602 6.43343 14.67 5.98512 14.3475 5.66268C14.0251 5.34024 13.5768 5.24998 13.1202 5.24998H8.89023Z" fill="#98A2B3" stroke="#98A2B3"/>
<path d="M10 13.75H7C6.59 13.75 6.25 13.41 6.25 13C6.25 12.59 6.59 12.25 7 12.25H10C10.41 12.25 10.75 12.59 10.75 13C10.75 13.41 10.41 13.75 10 13.75Z" fill="#98A2B3"/>
<path d="M18 16.76C17.59 16.76 17.25 16.43 17.25 16.01C17.25 15.6 17.58 15.26 18 15.26L21.75 15.25V10.46L20.16 9.66998C19.79 9.47998 19.64 9.02999 19.82 8.65999C20.01 8.28999 20.46 8.13999 20.83 8.31999L22.83 9.31999C23.08 9.44999 23.24 9.70999 23.24 9.98999V15.99C23.24 16.4 22.91 16.74 22.49 16.74L18 16.76Z" fill="#98A2B3"/>
</svg>
