<svg width="25" height="24" viewBox="0 0 25 24" fill="none" xmlns="http://www.w3.org/2000/svg">
<path d="M2.5 22H22.5" stroke="#98A2B3" stroke-width="2"/>
<mask id="path-2-inside-1_245_2447" fill="white">
<path d="M22.5 22.75H2.5C2.09 22.75 1.75 22.41 1.75 22C1.75 21.59 2.09 21.25 2.5 21.25H22.5C22.91 21.25 23.25 21.59 23.25 22C23.25 22.41 22.91 22.75 22.5 22.75Z"/>
</mask>
<path d="M22.5 22.75H2.5C2.09 22.75 1.75 22.41 1.75 22C1.75 21.59 2.09 21.25 2.5 21.25H22.5C22.91 21.25 23.25 21.59 23.25 22C23.25 22.41 22.91 22.75 22.5 22.75Z" fill="#98A2B3"/>
<path d="M22.5 20.75H2.5V24.75H22.5V20.75ZM2.5 20.75C3.19457 20.75 3.75 21.3054 3.75 22H-0.25C-0.25 23.5146 0.98543 24.75 2.5 24.75V20.75ZM3.75 22C3.75 22.6946 3.19457 23.25 2.5 23.25V19.25C0.98543 19.25 -0.25 20.4854 -0.25 22H3.75ZM2.5 23.25H22.5V19.25H2.5V23.25ZM22.5 23.25C21.8054 23.25 21.25 22.6946 21.25 22H25.25C25.25 20.4854 24.0146 19.25 22.5 19.25V23.25ZM21.25 22C21.25 21.3054 21.8054 20.75 22.5 20.75V24.75C24.0146 24.75 25.25 23.5146 25.25 22H21.25Z" fill="#98A2B3" mask="url(#path-2-inside-1_245_2447)"/>
<path d="M21.5 22.75H3.5C3.09 22.75 2.75 22.41 2.75 22V6C2.75 2.98 4.48 1.25 7.5 1.25H17.5C20.52 1.25 22.25 2.98 22.25 6V22C22.25 22.41 21.91 22.75 21.5 22.75ZM4.25 21.25H20.75V6C20.75 3.78 19.72 2.75 17.5 2.75H7.5C5.28 2.75 4.25 3.78 4.25 6V21.25Z" fill="#98A2B3"/>
<path d="M15.5 22.75H9.5C9.09 22.75 8.75 22.41 8.75 22V15.94C8.75 15.01 9.51 14.25 10.44 14.25H14.57C15.5 14.25 16.26 15.01 16.26 15.94V22C16.25 22.41 15.91 22.75 15.5 22.75ZM10.25 21.25H14.75V15.94C14.75 15.84 14.67 15.75 14.56 15.75H10.43C10.33 15.75 10.24 15.83 10.24 15.94V21.25H10.25Z" fill="#98A2B3"/>
<path d="M12.5 11.75C12.09 11.75 11.75 11.41 11.75 11V6C11.75 5.59 12.09 5.25 12.5 5.25C12.91 5.25 13.25 5.59 13.25 6V11C13.25 11.41 12.91 11.75 12.5 11.75Z" fill="#98A2B3"/>
<path d="M15 9.25H10C9.59 9.25 9.25 8.91 9.25 8.5C9.25 8.09 9.59 7.75 10 7.75H15C15.41 7.75 15.75 8.09 15.75 8.5C15.75 8.91 15.41 9.25 15 9.25Z" fill="#98A2B3"/>
</svg>
