<svg width="19" height="17" viewBox="0 0 19 17" fill="none" xmlns="http://www.w3.org/2000/svg">
<path d="M17.4868 12.4603L10.1568 15.3737C9.94856 15.4569 9.72231 15.5 9.49339 15.5C9.26447 15.5 9.03821 15.4569 8.82994 15.3737L1.5 12.4603M17.4868 8.95871L10.1568 11.8721C9.94856 11.9553 9.72231 11.9984 9.49339 11.9984C9.26447 11.9984 9.03821 11.9553 8.82994 11.8721L1.5 8.95871M10.1568 1.62631C9.94856 1.54307 9.72231 1.5 9.49339 1.5C9.26447 1.5 9.03821 1.54307 8.82994 1.62631L1.9796 4.35758C1.83776 4.41237 1.71716 4.50212 1.6325 4.6159C1.54784 4.72967 1.50276 4.86256 1.50276 4.99837C1.50276 5.13419 1.54784 5.26708 1.6325 5.38085C1.71716 5.49463 1.83776 5.58438 1.9796 5.63917L8.83793 8.37744C9.04621 8.46068 9.27246 8.50375 9.50138 8.50375C9.7303 8.50375 9.95655 8.46068 10.1648 8.37744L17.0232 5.64618C17.165 5.59138 17.2856 5.50163 17.3703 5.38786C17.4549 5.27408 17.5 5.1412 17.5 5.00538C17.5 4.86956 17.4549 4.73667 17.3703 4.6229C17.2856 4.50913 17.165 4.41938 17.0232 4.36458L10.1568 1.62631Z" stroke="white" stroke-width="1.5" stroke-linecap="round" stroke-linejoin="round"/>
</svg>
