<svg viewBox="0 0 39 38" fill="currentColor" xmlns="http://www.w3.org/2000/svg">
<path d="M9.75144 7.23315C15.1354 1.84916 23.8646 1.84916 29.2486 7.23315C34.6325 12.6171 34.6325 21.3463 29.2486 26.7303L27.3692 28.5889C25.984 29.9485 24.1867 31.6964 21.9766 33.8332C20.5955 35.1685 18.4045 35.1684 17.0236 33.8328L11.4961 28.4561C10.8014 27.7739 10.2198 27.1987 9.75144 26.7303C4.36745 21.3463 4.36745 12.6171 9.75144 7.23315ZM27.5692 8.91253C23.1127 4.45604 15.8873 4.45604 11.4308 8.91253C6.97433 13.369 6.97433 20.5944 11.4308 25.0509L13.7854 27.3744C15.082 28.6433 16.7119 30.2273 18.6748 32.1257C19.135 32.5708 19.8654 32.5709 20.3257 32.1258L25.701 26.8985C26.4435 26.1697 27.0663 25.5538 27.5692 25.0509C32.0257 20.5944 32.0257 13.369 27.5692 8.91253ZM19.5 12.665C22.1247 12.665 24.2525 14.7928 24.2525 17.4175C24.2525 20.0422 22.1247 22.1699 19.5 22.1699C16.8753 22.1699 14.7475 20.0422 14.7475 17.4175C14.7475 14.7928 16.8753 12.665 19.5 12.665ZM19.5 15.04C18.187 15.04 17.1225 16.1044 17.1225 17.4175C17.1225 18.7305 18.187 19.7949 19.5 19.7949C20.813 19.7949 21.8775 18.7305 21.8775 17.4175C21.8775 16.1044 20.813 15.04 19.5 15.04Z" />
</svg>
