<svg width="23" height="21" viewBox="0 0 23 21" fill="none" xmlns="http://www.w3.org/2000/svg">
<path d="M14.8458 18.7338C14.4516 18.7338 14.0575 18.655 13.7366 18.5063L8.92412 16.205C8.64912 16.0738 8.10829 16.0825 7.84245 16.2312L5.67912 17.4125C4.74412 17.92 3.78162 17.99 3.05745 17.5788C2.32412 17.1763 1.91162 16.3538 1.91162 15.3213V6.81625C1.91162 6.02 2.46162 5.11875 3.18579 4.725L7.15495 2.555C7.82412 2.1875 8.84162 2.16125 9.52912 2.49375L14.3416 4.795C14.6166 4.92625 15.1483 4.90875 15.4233 4.76875L17.5775 3.59625C18.5125 3.08875 19.475 3.01875 20.1991 3.43C20.9325 3.8325 21.345 4.655 21.345 5.6875V14.2013C21.345 14.9975 20.795 15.8988 20.0708 16.2925L16.1016 18.4625C15.7533 18.6375 15.295 18.7338 14.8458 18.7338ZM8.41995 14.805C8.81412 14.805 9.20829 14.8838 9.52912 15.0325L14.3416 17.3338C14.6166 17.465 15.1483 17.4475 15.4233 17.3075L19.3925 15.1375C19.6858 14.98 19.97 14.5075 19.97 14.1925V5.67875C19.97 5.1275 19.805 4.71625 19.5025 4.55875C19.2091 4.40125 18.7508 4.4625 18.2558 4.73375L16.1016 5.90625C15.4325 6.27375 14.415 6.3 13.7275 5.9675L8.91495 3.66625C8.63996 3.535 8.10829 3.5525 7.83329 3.6925L3.86412 5.8625C3.57079 6.02 3.28662 6.4925 3.28662 6.81625V15.33C3.28662 15.8813 3.45162 16.2925 3.74495 16.45C4.03829 16.6163 4.49662 16.5463 5.00079 16.275L7.15495 15.1025C7.51245 14.9013 7.97079 14.805 8.41995 14.805Z" fill="white"/>
<path d="M8.34668 15.5312C7.97085 15.5312 7.65918 15.2338 7.65918 14.875V3.5C7.65918 3.14125 7.97085 2.84375 8.34668 2.84375C8.72251 2.84375 9.03418 3.14125 9.03418 3.5V14.875C9.03418 15.2338 8.72251 15.5312 8.34668 15.5312Z" fill="white"/>
<path d="M14.9192 18.1562C14.5434 18.1562 14.2317 17.8587 14.2317 17.5V5.7925C14.2317 5.43375 14.5434 5.13625 14.9192 5.13625C15.295 5.13625 15.6067 5.43375 15.6067 5.7925V17.5C15.6067 17.8587 15.295 18.1562 14.9192 18.1562Z" fill="white"/>
</svg>
