<svg width="28" height="28" viewBox="0 0 19 19" fill="none" xmlns="http://www.w3.org/2000/svg">
<path d="M15.785 16.3475C15.635 16.3475 15.4925 16.2875 15.3875 16.1825L10.6025 11.3975C10.385 11.18 10.385 10.82 10.6025 10.6025L16.4 4.80501C16.5425 4.66251 16.76 4.61001 16.955 4.66251C17.15 4.72251 17.2999 4.88001 17.3449 5.07501C17.4874 5.71251 17.5625 6.425 17.5625 7.25V11.75C17.5625 13.8275 17.1275 15.23 16.1825 16.1825C16.0775 16.2875 15.92 16.31 15.785 16.3475ZM11.795 11L15.74 14.945C16.2125 14.2175 16.4375 13.1825 16.4375 11.75V7.25C16.4375 6.9425 16.4299 6.65751 16.4074 6.38751L11.795 11Z" fill="white"/>
<path d="M5.20249 17.36C5.15749 17.36 5.12 17.3525 5.075 17.345C2.5925 16.775 1.4375 14.9975 1.4375 11.75V7.25C1.4375 3.1775 3.1775 1.4375 7.25 1.4375H11.75C14.9975 1.4375 16.775 2.5925 17.345 5.075C17.39 5.2625 17.33 5.465 17.195 5.6L5.59999 17.195C5.49499 17.3 5.35249 17.36 5.20249 17.36ZM7.25 2.5625C3.7925 2.5625 2.5625 3.7925 2.5625 7.25V11.75C2.5625 14.3525 3.28251 15.6575 5.03001 16.175L16.1675 5.0375C15.6575 3.29 14.345 2.57 11.7425 2.57H7.25V2.5625Z" fill="white"/>
<path d="M11.7499 17.5625H7.24991C6.42491 17.5625 5.71992 17.495 5.07492 17.345C4.87242 17.3 4.71491 17.15 4.66241 16.955C4.60241 16.76 4.66241 16.55 4.80491 16.4L10.6024 10.6025C10.8199 10.385 11.1799 10.385 11.3974 10.6025L16.1824 15.3875C16.2874 15.4925 16.3474 15.635 16.3474 15.785C16.3474 15.935 16.2874 16.0775 16.1824 16.1825C15.2299 17.1275 13.8274 17.5625 11.7499 17.5625ZM6.38742 16.4075C6.65742 16.43 6.94241 16.4375 7.24991 16.4375H11.7499C13.1899 16.4375 14.2174 16.2125 14.9449 15.74L10.9999 11.795L6.38742 16.4075Z" fill="white"/>
<path d="M7.33996 10.4825C6.86746 10.4825 6.39495 10.31 6.01995 9.95749C4.82745 8.82499 4.34747 7.57999 4.63247 6.36499C4.91747 5.11999 6.00496 4.27998 7.33996 4.27998C8.67496 4.27998 9.76247 5.11999 10.0475 6.36499C10.325 7.58749 9.84496 8.82499 8.65246 9.95749C8.28496 10.3025 7.81246 10.4825 7.33996 10.4825ZM5.72746 6.61248C5.48746 7.63248 6.17745 8.54749 6.79995 9.13999C7.10745 9.43249 7.57996 9.43249 7.87996 9.13999C8.49496 8.55499 9.18495 7.63998 8.95245 6.61248C8.74995 5.71998 7.95496 5.39749 7.33996 5.39749C6.72496 5.39749 5.93746 5.71998 5.72746 6.61248Z" fill="white"/>
<path d="M7.36243 7.61749C6.94993 7.61749 6.61243 7.27999 6.61243 6.86749C6.61243 6.45499 6.94243 6.11749 7.36243 6.11749H7.36993C7.78243 6.11749 8.11993 6.45499 8.11993 6.86749C8.11993 7.27999 7.77493 7.61749 7.36243 7.61749Z" fill="white"/>
</svg>
