<svg width="25" height="24" viewBox="0 0 25 24" fill="none" xmlns="http://www.w3.org/2000/svg">
<path d="M22.2308 7.5H3.76923C3.34872 7.5 3 7.16 3 6.75C3 6.34 3.34872 6 3.76923 6H22.2308C22.6513 6 23 6.34 23 6.75C23 7.16 22.6513 7.5 22.2308 7.5Z" />
<path d="M22.1154 12.5H0.884615C0.401026 12.5 0 12.16 0 11.75C0 11.34 0.401026 11 0.884615 11H22.1154C22.599 11 23 11.34 23 11.75C23 12.16 22.599 12.5 22.1154 12.5Z" />
<path d="M22.2308 17.5H3.76923C3.34872 17.5 3 17.16 3 16.75C3 16.34 3.34872 16 3.76923 16H22.2308C22.6513 16 23 16.34 23 16.75C23 17.16 22.6513 17.5 22.2308 17.5Z" />
</svg>
