<svg width="28" height="28" viewBox="0 0 28 28" fill="none" xmlns="http://www.w3.org/2000/svg">
<path d="M14 13.9998C14.6444 13.9998 15.1667 13.4774 15.1667 12.8331C15.1667 12.1888 14.6444 11.6664 14 11.6664C13.3557 11.6664 12.8334 12.1888 12.8334 12.8331C12.8334 13.4774 13.3557 13.9998 14 13.9998Z" fill="white"/>
<path d="M9.33329 13.9998C9.97763 13.9998 10.5 13.4774 10.5 12.8331C10.5 12.1888 9.97763 11.6664 9.33329 11.6664C8.68896 11.6664 8.16663 12.1888 8.16663 12.8331C8.16663 13.4774 8.68896 13.9998 9.33329 13.9998Z" fill="white"/>
<path d="M18.6667 13.9998C19.311 13.9998 19.8333 13.4774 19.8333 12.8331C19.8333 12.1888 19.311 11.6664 18.6667 11.6664C18.0223 11.6664 17.5 12.1888 17.5 12.8331C17.5 13.4774 18.0223 13.9998 18.6667 13.9998Z" fill="white"/>
<path d="M3.55822 25.515C3.8024 25.6157 4.06407 25.6673 4.32822 25.6667C4.58872 25.668 4.84684 25.617 5.08731 25.5168C5.32778 25.4166 5.54571 25.2692 5.72822 25.0833L8.64488 22.1667H19.8332C21.3803 22.1667 22.864 21.5521 23.958 20.4581C25.052 19.3642 25.6665 17.8804 25.6665 16.3333V9.33333C25.6665 7.78624 25.052 6.30251 23.958 5.20854C22.864 4.11458 21.3803 3.5 19.8332 3.5H8.16655C6.61945 3.5 5.13572 4.11458 4.04176 5.20854C2.9478 6.30251 2.33322 7.78624 2.33322 9.33333V23.6717C2.32952 24.0662 2.44429 24.4528 2.66267 24.7814C2.88106 25.1101 3.19303 25.3656 3.55822 25.515ZM4.66655 9.33333C4.66655 8.40508 5.0353 7.51484 5.69168 6.85846C6.34805 6.20208 7.23829 5.83333 8.16655 5.83333H19.8332C20.7615 5.83333 21.6517 6.20208 22.3081 6.85846C22.9645 7.51484 23.3332 8.40508 23.3332 9.33333V16.3333C23.3332 17.2616 22.9645 18.1518 22.3081 18.8082C21.6517 19.4646 20.7615 19.8333 19.8332 19.8333H8.16655C8.01301 19.8324 7.8608 19.8619 7.71866 19.9199C7.57651 19.978 7.44723 20.0635 7.33822 20.1717L4.66655 22.855V9.33333Z" fill="white"/>
</svg>
