<svg width="19" height="19" viewBox="0 0 19 19" fill="none" xmlns="http://www.w3.org/2000/svg">
<path d="M4.25 11.5625C3.11 11.5625 2.1875 10.64 2.1875 9.5C2.1875 8.36 3.11 7.4375 4.25 7.4375C5.39 7.4375 6.3125 8.36 6.3125 9.5C6.3125 10.64 5.39 11.5625 4.25 11.5625ZM4.25 8.5625C3.7325 8.5625 3.3125 8.9825 3.3125 9.5C3.3125 10.0175 3.7325 10.4375 4.25 10.4375C4.7675 10.4375 5.1875 10.0175 5.1875 9.5C5.1875 8.9825 4.7675 8.5625 4.25 8.5625Z" />
<path d="M14.75 11.5625C13.61 11.5625 12.6875 10.64 12.6875 9.5C12.6875 8.36 13.61 7.4375 14.75 7.4375C15.89 7.4375 16.8125 8.36 16.8125 9.5C16.8125 10.64 15.89 11.5625 14.75 11.5625ZM14.75 8.5625C14.2325 8.5625 13.8125 8.9825 13.8125 9.5C13.8125 10.0175 14.2325 10.4375 14.75 10.4375C15.2675 10.4375 15.6875 10.0175 15.6875 9.5C15.6875 8.9825 15.2675 8.5625 14.75 8.5625Z" />
<path d="M9.5 11.5625C8.36 11.5625 7.4375 10.64 7.4375 9.5C7.4375 8.36 8.36 7.4375 9.5 7.4375C10.64 7.4375 11.5625 8.36 11.5625 9.5C11.5625 10.64 10.64 11.5625 9.5 11.5625ZM9.5 8.5625C8.9825 8.5625 8.5625 8.9825 8.5625 9.5C8.5625 10.0175 8.9825 10.4375 9.5 10.4375C10.0175 10.4375 10.4375 10.0175 10.4375 9.5C10.4375 8.9825 10.0175 8.5625 9.5 8.5625Z" />
</svg>
