<svg width="19" height="18" viewBox="0 0 19 18" fill="none" xmlns="http://www.w3.org/2000/svg">
<path d="M2.64402 2.15773L12.0715 0.811478C12.1247 0.803846 12.179 0.80774 12.2305 0.822897C12.2821 0.838054 12.3298 0.86412 12.3704 0.899328C12.411 0.934535 12.4436 0.978062 12.4659 1.02696C12.4882 1.07586 12.4998 1.12898 12.4998 1.18273V16.8172C12.4998 16.8709 12.4882 16.924 12.466 16.9728C12.4437 17.0216 12.4112 17.0651 12.3707 17.1003C12.3301 17.1355 12.2825 17.1616 12.231 17.1768C12.1796 17.192 12.1254 17.196 12.0723 17.1885L2.64327 15.8422C2.46449 15.8168 2.30089 15.7276 2.18254 15.5912C2.06419 15.4548 1.99903 15.2803 1.99902 15.0997V2.90023C1.99903 2.71964 2.06419 2.54511 2.18254 2.40871C2.30089 2.27231 2.46524 2.18319 2.64402 2.15773ZM3.49977 3.55123V14.4487L10.9998 15.5205V2.47948L3.49977 3.55123ZM13.2498 14.25H15.4998V3.74998H13.2498V2.24998H16.2498C16.4487 2.24998 16.6395 2.329 16.7801 2.46965C16.9208 2.6103 16.9998 2.80107 16.9998 2.99998V15C16.9998 15.1989 16.9208 15.3897 16.7801 15.5303C16.6395 15.671 16.4487 15.75 16.2498 15.75H13.2498V14.25ZM8.14977 8.99998L10.2498 12H8.44977L7.24977 10.2855L6.04977 12H4.24977L6.34977 8.99998L4.24977 5.99998H6.04977L7.24977 7.71448L8.44977 5.99998H10.2498L8.14977 8.99998Z" fill="white"/>
</svg>
