<svg width="24" height="24" viewBox="0 0 24 24" fill="none" xmlns="http://www.w3.org/2000/svg">
<path d="M2.55714 4.71278L2.55724 4.71233C2.89436 3.25007 4.15477 2.50015 5.47461 2.50125C6.79468 2.50235 8.05526 3.25466 8.39264 4.71162C8.78915 6.46413 7.69258 8.00905 6.59628 9.0569C5.96911 9.64437 4.98095 9.64437 4.35378 9.05691C3.25525 8.00694 2.15188 6.46316 2.55714 4.71278ZM4.01003 5.2C4.01003 6.02614 4.68388 6.7 5.51003 6.7C6.34942 6.7 7.01003 6.02288 7.01003 5.2C7.01003 4.37713 6.34942 3.7 5.51003 3.7H5.50003C4.66736 3.7 4.01003 4.38043 4.01003 5.2Z" fill="#353535" stroke="#424242"/>
<path d="M21.4228 16.7126L21.4229 16.7128C21.8281 18.4631 20.7245 20.0073 19.617 21.0562C18.9896 21.6446 17.9904 21.6446 17.363 21.0562C16.2556 20.0073 15.152 18.4634 15.557 16.7132C15.8985 15.2514 17.1659 14.5002 18.4933 14.5013C19.8214 14.5024 21.0861 15.2562 21.4228 16.7126ZM17.03 17.2C17.03 18.0261 17.7039 18.7 18.53 18.7C19.3561 18.7 20.03 18.0261 20.03 17.2C20.03 16.3739 19.3561 15.7 18.53 15.7H18.52C17.6873 15.7 17.03 16.3804 17.03 17.2Z" fill="#353535" stroke="#424242"/>
<path d="M11.9999 19.75H9.31994C8.15994 19.75 7.14994 19.05 6.74994 17.97C6.33994 16.89 6.63994 15.7 7.50994 14.93L15.4999 7.94C15.9799 7.52 15.9899 6.95 15.8499 6.56C15.6999 6.17 15.3199 5.75 14.6799 5.75H11.9999C11.5899 5.75 11.2499 5.41 11.2499 5C11.2499 4.59 11.5899 4.25 11.9999 4.25H14.6799C15.8399 4.25 16.8499 4.95 17.2499 6.03C17.6599 7.11 17.3599 8.3 16.4899 9.07L8.49994 16.06C8.01994 16.48 8.00994 17.05 8.14994 17.44C8.29994 17.83 8.67994 18.25 9.31994 18.25H11.9999C12.4099 18.25 12.7499 18.59 12.7499 19C12.7499 19.41 12.4099 19.75 11.9999 19.75Z" fill="#353535"/>
</svg>
