<svg xmlns="http://www.w3.org/2000/svg" width="23" height="23" viewBox="0 0 23 23" fill="none">
<g clip-path="url(#clip0_492_1888)">
<path d="M0.646973 1.32292C0.646973 1.14364 0.718188 0.971716 0.844952 0.844952C0.971716 0.718188 1.14364 0.646973 1.32292 0.646973H5.37858C5.55785 0.646973 5.72978 0.718188 5.85654 0.844952C5.9833 0.971716 6.05452 1.14364 6.05452 1.32292C6.05452 1.50219 5.9833 1.67412 5.85654 1.80088C5.72978 1.92764 5.55785 1.99886 5.37858 1.99886C3.51201 1.99886 1.99886 3.51201 1.99886 5.37858C1.99886 5.55785 1.92764 5.72978 1.80088 5.85654C1.67412 5.9833 1.50219 6.05452 1.32292 6.05452C1.14364 6.05452 0.971716 5.9833 0.844952 5.85654C0.718188 5.72978 0.646973 5.55785 0.646973 5.37858V1.32292ZM16.8696 1.32292C16.8696 1.14364 16.9408 0.971716 17.0676 0.844952C17.1944 0.718188 17.3663 0.646973 17.5456 0.646973H21.6012C21.7805 0.646973 21.9524 0.718188 22.0792 0.844952C22.2059 0.971716 22.2772 1.14364 22.2772 1.32292V5.37858C22.2772 5.55785 22.2059 5.72978 22.0792 5.85654C21.9524 5.9833 21.7805 6.05452 21.6012 6.05452C21.4219 6.05452 21.25 5.9833 21.1232 5.85654C20.9965 5.72978 20.9253 5.55785 20.9253 5.37858C20.9253 3.51201 19.4121 1.99886 17.5456 1.99886C17.3663 1.99886 17.1944 1.92764 17.0676 1.80088C16.9408 1.67412 16.8696 1.50219 16.8696 1.32292ZM1.32292 16.8696C1.50219 16.8696 1.67412 16.9408 1.80088 17.0676C1.92764 17.1944 1.99886 17.3663 1.99886 17.5456C1.99886 19.4121 3.51201 20.9253 5.37858 20.9253C5.55785 20.9253 5.72978 20.9965 5.85654 21.1232C5.9833 21.25 6.05452 21.4219 6.05452 21.6012C6.05452 21.7805 5.9833 21.9524 5.85654 22.0792C5.72978 22.2059 5.55785 22.2772 5.37858 22.2772H1.32292C1.14364 22.2772 0.971716 22.2059 0.844952 22.0792C0.718188 21.9524 0.646973 21.7805 0.646973 21.6012V17.5456C0.646973 17.3663 0.718188 17.1944 0.844952 17.0676C0.971716 16.9408 1.14364 16.8696 1.32292 16.8696ZM21.6012 16.8696C21.7805 16.8696 21.9524 16.9408 22.0792 17.0676C22.2059 17.1944 22.2772 17.3663 22.2772 17.5456V21.6012C22.2772 21.7805 22.2059 21.9524 22.0792 22.0792C21.9524 22.2059 21.7805 22.2772 21.6012 22.2772H17.5456C17.3663 22.2772 17.1944 22.2059 17.0676 22.0792C16.9408 21.9524 16.8696 21.7805 16.8696 21.6012C16.8696 21.4219 16.9408 21.25 17.0676 21.1232C17.1944 20.9965 17.3663 20.9253 17.5456 20.9253C19.4121 20.9253 20.9253 19.4121 20.9253 17.5456C20.9253 17.3663 20.9965 17.1944 21.1232 17.0676C21.25 16.9408 21.4219 16.8696 21.6012 16.8696ZM6.05452 6.73046C6.05452 6.35715 6.35715 6.05452 6.73046 6.05452C7.10378 6.05452 7.4064 6.35715 7.4064 6.73046C7.4064 7.10378 7.10378 7.4064 6.73046 7.4064C6.35715 7.4064 6.05452 7.10378 6.05452 6.73046Z" fill="white"/>
<path d="M10.1103 3.35071H3.35083V10.1101H10.1103V3.35071ZM4.70272 4.70259H8.75838V8.75825H4.70272V4.70259ZM7.40649 15.5177H6.0546V16.8696H7.40649V15.5177Z" fill="white"/>
<path d="M10.1103 12.814H3.35083V19.5734H10.1103V12.814ZM4.70272 14.1659H8.75838V18.2215H4.70272V14.1659ZM15.5178 6.05457H16.8697V7.40645H15.5178V6.05457Z" fill="white"/>
<path d="M12.814 3.35071H19.5735V10.1101H12.814V3.35071ZM14.1659 4.70259V8.75825H18.2216V4.70259H14.1659ZM11.4622 11.462V14.1658H12.814V15.5177H11.4622V16.8696H14.1659V14.1658H15.5178V16.8696H16.8697V15.5177H19.5735V14.1658H15.5178V11.462H11.4622ZM14.1659 14.1658H12.814V12.8139H14.1659V14.1658ZM19.5735 16.8696H18.2216V18.2215H15.5178V19.5733H19.5735V16.8696ZM14.1659 19.5733V18.2215H11.4622V19.5733H14.1659Z" fill="white"/>
<path d="M16.8696 12.8139H19.5734V11.462H16.8696V12.8139Z" fill="white"/>
<circle cx="6.71542" cy="6.71542" r="0.78109" fill="white"/>
</g>
<defs>
<clipPath id="clip0_492_1888">
<rect width="21.6302" height="21.6302" fill="white" transform="translate(0.646973 0.646973)"/>
</clipPath>
</defs>
</svg>