<svg width="18" height="19" viewBox="0 0 25 24"  xmlns="http://www.w3.org/2000/svg">
<path d="M11.75 21.75C6.1 21.75 1.5 17.15 1.5 11.5C1.5 5.85 6.1 1.25 11.75 1.25C17.4 1.25 22 5.85 22 11.5C22 17.15 17.4 21.75 11.75 21.75ZM11.75 2.75C6.92 2.75 3 6.68 3 11.5C3 16.32 6.92 20.25 11.75 20.25C16.58 20.25 20.5 16.32 20.5 11.5C20.5 6.68 16.58 2.75 11.75 2.75Z" fill="white"/>
<path d="M22.2499 22.75C22.0599 22.75 21.8699 22.68 21.7199 22.53L19.7199 20.53C19.4299 20.24 19.4299 19.76 19.7199 19.47C20.0099 19.18 20.4899 19.18 20.7799 19.47L22.7799 21.47C23.0699 21.76 23.0699 22.24 22.7799 22.53C22.6299 22.68 22.4399 22.75 22.2499 22.75Z" fill="white"/>
</svg>
