<svg width="25" height="24" viewBox="0 0 25 24" fill="none" xmlns="http://www.w3.org/2000/svg">
<rect width="24" height="24" transform="translate(0.5)" fill="white"/>
<path d="M12 21C17.2467 21 21.5 16.7467 21.5 11.5C21.5 6.25329 17.2467 2 12 2C6.75329 2 2.5 6.25329 2.5 11.5C2.5 16.7467 6.75329 21 12 21Z" fill="#253289"/>
<path d="M21.8001 22C21.6201 22 21.4401 21.93 21.3101 21.8L19.4501 19.94C19.1801 19.67 19.1801 19.23 19.4501 18.95C19.7201 18.68 20.1601 18.68 20.4401 18.95L22.3001 20.81C22.5701 21.08 22.5701 21.52 22.3001 21.8C22.1601 21.93 21.9801 22 21.8001 22Z" fill="#253289"/>
</svg>
