<svg width="17" height="18" viewBox="0 0 17 18" fill="none" xmlns="http://www.w3.org/2000/svg">
<path fill-rule="evenodd" clip-rule="evenodd" d="M12.75 2.62498C11.9676 2.62498 11.3333 3.25924 11.3333 4.04165C11.3333 4.82405 11.9676 5.45831 12.75 5.45831C13.5324 5.45831 14.1666 4.82405 14.1666 4.04165C14.1666 3.25924 13.5324 2.62498 12.75 2.62498ZM9.91663 4.04165C9.91663 2.47684 11.1852 1.20831 12.75 1.20831C14.3148 1.20831 15.5833 2.47684 15.5833 4.04165C15.5833 5.60645 14.3148 6.87498 12.75 6.87498C11.1852 6.87498 9.91663 5.60645 9.91663 4.04165Z" fill="white"/>
<path fill-rule="evenodd" clip-rule="evenodd" d="M4.24996 7.58335C3.46756 7.58335 2.83329 8.21762 2.83329 9.00002C2.83329 9.78242 3.46756 10.4167 4.24996 10.4167C5.03236 10.4167 5.66663 9.78242 5.66663 9.00002C5.66663 8.21762 5.03236 7.58335 4.24996 7.58335ZM1.41663 9.00002C1.41663 7.43521 2.68515 6.16669 4.24996 6.16669C5.81477 6.16669 7.08329 7.43521 7.08329 9.00002C7.08329 10.5648 5.81477 11.8334 4.24996 11.8334C2.68515 11.8334 1.41663 10.5648 1.41663 9.00002Z" fill="white"/>
<path fill-rule="evenodd" clip-rule="evenodd" d="M12.75 12.5417C11.9676 12.5417 11.3333 13.1759 11.3333 13.9583C11.3333 14.7407 11.9676 15.375 12.75 15.375C13.5324 15.375 14.1666 14.7407 14.1666 13.9583C14.1666 13.1759 13.5324 12.5417 12.75 12.5417ZM9.91663 13.9583C9.91663 12.3935 11.1852 11.125 12.75 11.125C14.3148 11.125 15.5833 12.3935 15.5833 13.9583C15.5833 15.5231 14.3148 16.7917 12.75 16.7917C11.1852 16.7917 9.91663 15.5231 9.91663 13.9583Z" fill="white"/>
<path fill-rule="evenodd" clip-rule="evenodd" d="M5.47254 9.71296C5.6695 9.37496 6.10318 9.26063 6.44118 9.45759L11.2791 12.2768C11.6171 12.4737 11.7314 12.9074 11.5345 13.2454C11.3375 13.5834 10.9038 13.6977 10.5658 13.5008L5.72792 10.6816C5.38992 10.4846 5.27558 10.051 5.47254 9.71296Z" fill="white"/>
<path fill-rule="evenodd" clip-rule="evenodd" d="M11.5272 4.75426C11.7243 5.09214 11.6103 5.52588 11.2724 5.72306L6.44157 8.54223C6.10369 8.7394 5.66995 8.62534 5.47277 8.28747C5.27559 7.94959 5.38965 7.51585 5.72753 7.31867L10.5584 4.4995C10.8962 4.30233 11.33 4.41638 11.5272 4.75426Z" fill="white"/>
</svg>
