<svg  viewBox="0 0 20 21" fill="currentColor" xmlns="http://www.w3.org/2000/svg">
<path d="M2.1875 7.1125L5.5375 10.5L2.7125 13.325C2.42186 13.6142 2.19123 13.958 2.03386 14.3366C1.87649 14.7153 1.79548 15.1212 1.79548 15.5313C1.79548 15.9413 1.87649 16.3473 2.03386 16.7259C2.19123 17.1045 2.42186 17.4483 2.7125 17.7375C3.29827 18.3214 4.09164 18.6493 4.91875 18.6493C5.74586 18.6493 6.53923 18.3214 7.125 17.7375L8.2375 16.6375L10 14.875L13.4 18.3125C13.6942 18.5996 14.089 18.7603 14.5 18.7603C14.9111 18.7603 15.3058 18.5996 15.6 18.3125L17.8125 16.1C17.958 15.9549 18.0735 15.7824 18.1522 15.5926C18.231 15.4028 18.2715 15.1993 18.2715 14.9938C18.2715 14.7882 18.231 14.5847 18.1522 14.3949C18.0735 14.2051 17.958 14.0326 17.8125 13.8875L14.375 10.5L14.65 10.225L15.7625 9.125L17.95 4.55C18.0916 4.25786 18.1386 3.92888 18.0847 3.60876C18.0307 3.28864 17.8783 2.99329 17.6488 2.76374C17.4192 2.53418 17.1239 2.38183 16.8037 2.32785C16.4836 2.27386 16.1546 2.32093 15.8625 2.4625L11.3375 4.65L10.725 5.2625L10.2375 5.75L10 6.0375L6.65 2.6875C6.35582 2.40042 5.96105 2.23972 5.55 2.23972C5.13895 2.23972 4.74419 2.40042 4.45 2.6875L2.2375 4.9C2.08866 5.04183 1.96928 5.21163 1.88619 5.39968C1.8031 5.58774 1.75794 5.79034 1.75329 5.99587C1.74865 6.20141 1.78461 6.40585 1.85912 6.59746C1.93363 6.78907 2.04522 6.9641 2.1875 7.1125ZM4.925 17.1125C4.50957 17.1138 4.11017 16.9523 3.8125 16.6625C3.66699 16.5174 3.55154 16.3449 3.47277 16.1551C3.394 15.9653 3.35346 15.7618 3.35346 15.5563C3.35346 15.3507 3.394 15.1472 3.47277 14.9574C3.55154 14.7676 3.66699 14.5951 3.8125 14.45L6.025 16.6C5.73043 16.8868 5.3361 17.0481 4.925 17.05L4.925 17.1125ZM16.7125 15L14.5 17.2L13.475 16.175L14.5625 15.075L13.4625 13.975L12.3625 15.075L11.1125 13.825L13.275 11.5625L16.7125 15ZM16.55 3.8625L14.5875 7.9L12.5 5.825L16.55 3.8625ZM11.3375 6.8625L13.55 9.075L7.125 15.5L4.925 13.3L11.3375 6.8625ZM5.5 3.8L8.85 7.1375L6.6375 9.35L5.475 8.1875L6.575 7.0875L5.475 5.975L4.3625 7.0875L3.2875 6L5.5 3.8Z" />
</svg>
