<svg  viewBox="0 0 116 116" fill="none" xmlns="http://www.w3.org/2000/svg">
<circle cx="58" cy="58" r="53" fill="#49B486" stroke="#FCFCFC" stroke-width="10"/>
<path d="M64.7031 18.3121C59.4912 17.4318 54.157 17.5867 49.005 18.768C43.853 19.9492 38.984 22.1337 34.6762 25.1966C30.3684 28.2595 26.7061 32.1409 23.8983 36.6192C21.0906 41.0975 19.1924 46.085 18.3121 51.2969C17.4318 56.5088 17.5867 61.843 18.768 66.995C19.9492 72.147 22.1337 77.016 25.1966 81.3238C28.2595 85.6316 32.1409 89.2939 36.6192 92.1017C41.0975 94.9094 46.085 96.8076 51.2969 97.6879C56.5088 98.5682 61.843 98.4133 66.995 97.232C72.147 96.0508 77.016 93.8663 81.3238 90.8034C85.6316 87.7405 89.2939 83.8591 92.1017 79.3808C94.9094 74.9025 96.8076 69.915 97.6879 64.7031C98.5682 59.4912 98.4133 54.157 97.232 49.005C96.0508 43.853 93.8663 38.984 90.8034 34.6762C87.7405 30.3684 83.8591 26.7061 79.3808 23.8983C74.9025 21.0906 69.915 19.1924 64.7031 18.3121L64.7031 18.3121Z" stroke="#FCFCFC" stroke-width="1.5" stroke-linecap="round" stroke-linejoin="round" stroke-dasharray="10 10"/>
<path d="M64.2767 56.5662H50.7241C49.3266 56.5662 48.2542 56.0137 47.7667 55.0712C47.2792 54.1124 47.4741 52.9262 48.2866 51.8049L55.0629 42.3149C56.2654 40.5924 58.7516 40.5924 59.9704 42.3312L66.7466 51.8049C67.5591 52.9262 67.7542 54.1124 67.2667 55.0712C66.7467 56.0137 65.6742 56.5662 64.2767 56.5662ZM57.5004 43.3874C57.3541 43.3874 57.1916 43.5174 57.0454 43.7124L50.2691 53.2187C49.9441 53.6574 49.9279 53.9174 49.9441 53.9662C49.9604 53.9987 50.1879 54.1287 50.7404 54.1287H64.2929C64.8291 54.1287 65.0567 53.9824 65.0892 53.9499C65.0892 53.9174 65.0729 53.6574 64.7641 53.2187L57.9879 43.7287C57.8091 43.5012 57.6466 43.3874 57.5004 43.3874Z" fill="white"/>
<path d="M66.5839 69.4688H48.4327C46.109 69.4688 45.1827 68.3475 44.8414 67.6813C44.5002 67.015 44.1427 65.6175 45.5077 63.7325L51.9914 54.6325C52.2189 54.3075 52.5927 54.1288 52.9827 54.1288H62.034C62.424 54.1288 62.7977 54.3238 63.0252 54.6325L69.509 63.7488C70.874 65.6175 70.5002 67.015 70.159 67.6813C69.8177 68.3475 68.9077 69.4688 66.5839 69.4688ZM53.6002 56.5663L47.4739 65.1625C46.9539 65.8775 46.9052 66.365 47.0027 66.5763C47.1165 66.7875 47.5389 67.0313 48.4164 67.0313H66.5677C67.4452 67.0313 67.884 66.7875 67.9815 66.5763C68.0952 66.365 68.0302 65.8775 67.5102 65.1625L61.384 56.55H53.6002V56.5663Z" fill="white"/>
<path d="M57.5 75.9688C56.8338 75.9688 56.2812 75.4162 56.2812 74.75V68.25C56.2812 67.5838 56.8338 67.0312 57.5 67.0312C58.1662 67.0312 58.7188 67.5838 58.7188 68.25V74.75C58.7188 75.4162 58.1662 75.9688 57.5 75.9688Z" fill="white"/>
</svg>
